PathFileType	4	(X/Y/Z)	OpenSim_Sub11_CSPreOp_Accel.trc
DataRate	CameraRate	NumFrames	NumMarkers	Units	OrigDataRate	OrigDataStartFrame	OrigNumFrames
100	100	20	8	m	100	463	3701
Frame#	Time	torso_imu_offset_imu	pelvis_imu_offset_imu	tibia_r_imu_offset_imu	femur_r_imu_offset_imu	tibia_l_imu_offset_imu	femur_l_imu_offset_imu	toes_r_imu_offset_imu	toes_l_imu_offset_imu
				X1	Y1	Z1	X2	Y2	Z2	X3	Y3	Z3	X4	Y4	Z4	X5	Y5	Z5	X6	Y6	Z6	X7	Y7	Z7	X8		Y8	Z8	

463	4.62000000	8.26865400	-0.94766000	4.75011400	9.63702800	-0.12079400	3.18990500	10.05775900	-0.75731600	1.40823300	9.78902100	0.98670200	-1.42285200	6.39935600	-10.61768000	1.62011600	12.54171800	1.16644300	1.58835200	4.96225800	-0.70236700	9.01140700	13.78648200	1.61153200	6.81839800
464	4.63000000	8.47509300	-1.17524500	4.85101400	10.14406300	-0.12890700	3.25249800	10.01773300	-1.30164600	1.23234500	10.02431600	1.46115700	-1.35748100	6.15312200	-12.04017600	0.77384100	13.22227500	0.65006000	1.11513700	4.69583800	-0.62516800	8.77820700	8.53513000	2.14276900	4.68098400
465	4.64000000	8.80842000	-1.19242200	5.06661200	10.57224200	0.10083900	3.15557200	10.02187700	-1.52011700	1.19236600	10.07269400	1.77364600	-1.48635100	5.82285500	-11.29766100	-0.59884500	12.88307200	0.67604500	0.47065100	4.64478000	-0.55532400	9.21237100	3.94058000	-4.19308900	11.92077300
466	4.65000000	9.03557400	-1.16777600	5.32485500	10.74640300	0.37771300	3.46117600	9.94875100	-1.60998900	1.40491700	10.11771400	1.88140100	-1.76298600	5.02418900	-12.10817400	-1.88895300	12.29141500	0.87707900	-0.33611700	4.74163000	-0.90846800	8.39251100	7.42729800	-10.86671400	13.65103300
467	4.66000000	9.03326100	-1.22183600	5.44316800	10.74107600	0.53945600	3.51128300	9.98332100	-1.69947700	1.37730500	10.24643900	1.58568100	-2.27452700	4.10468100	-11.96450100	-1.79770700	11.58149800	0.45777000	-0.79160100	4.71293600	-0.60482200	9.01877800	9.29529300	-3.84045600	14.56035200
468	4.67000000	9.11790000	-1.16132000	5.60259700	10.63424000	0.63886000	3.73620200	10.02698200	-1.58147300	1.13766000	10.07504300	1.06609500	-2.82293000	3.69912500	-9.76317900	-0.74663500	11.49430800	0.42316100	-1.01046500	4.44338300	-0.70623600	8.88795400	-5.15278000	1.01094600	9.60930200
469	4.68000000	9.15902600	-1.08646800	5.66450200	10.46825700	0.68272000	3.75436300	10.13363400	-1.38265900	1.02966600	9.64207000	0.54199200	-3.18051000	3.96021200	-6.10347400	0.11293400	11.39945500	0.72936800	-1.17719700	4.16219800	-0.91187300	8.94532300	-5.49817900	5.05131600	9.46841400
470	4.69000000	9.21806400	-1.06347800	5.61263700	10.21140000	0.72177200	3.63658600	10.07777200	-1.46086500	0.85130600	9.15427600	0.22056000	-3.43250200	3.55352000	-4.55392800	0.55535000	10.95387600	1.15628400	-1.10464200	4.62430600	-0.79901900	8.50588000	-1.19207800	1.48083900	8.88380700
471	4.70000000	9.16684700	-0.85171300	5.53915900	9.94907000	0.81469400	3.61104700	10.03545200	-1.62122200	0.56983000	8.89028300	0.17986300	-3.47713500	3.52862200	-4.73883500	0.99240500	10.21907600	1.63952200	-0.91183500	4.65889800	-0.81051700	8.61354100	1.89140100	-0.95730800	9.72401500
472	4.71000000	9.10753400	-0.62246400	5.42837200	9.67223500	0.89340900	3.49253400	10.08721800	-1.29045700	0.45080300	8.92590600	0.45418400	-3.49230500	3.83302900	-5.88411400	1.02268200	9.37077700	1.83011400	-0.54100400	4.40406700	-0.90810300	8.93530300	2.01952900	-1.11331800	9.39631200
473	4.72000000	9.02017000	-0.56576700	5.28161800	9.53768600	0.87039700	3.30348400	10.11066200	-0.68593600	0.46967000	9.00333800	0.85238000	-3.24787700	4.29512700	-6.82634100	0.82627900	8.64806900	1.95873400	-0.05356200	4.00420900	-1.01545400	8.62327900	1.38052600	0.07225100	8.36998200
474	4.73000000	8.81040000	-0.62692400	5.11715800	9.37809100	0.80943300	3.25437100	10.01449900	-0.29194700	0.53950000	9.00463800	1.38941600	-2.95396900	4.22591600	-6.67295000	1.34221300	8.27305800	1.96196100	0.34044700	4.61636700	-0.95931100	8.68867500	2.40339000	1.21555000	7.84855600
475	4.74000000	8.63698500	-0.53207400	5.02623200	9.17278600	0.71862000	3.04307300	9.90173200	-0.18168800	0.53088700	9.04186500	1.89067400	-2.68522700	3.60904700	-5.37481800	1.60929900	7.83132500	2.07104200	0.82260400	4.32812100	-0.90542400	8.55755500	3.81349800	0.75150000	7.35856600
476	4.75000000	8.63421900	-0.39213900	4.96527300	8.98848100	0.68766600	2.89251600	9.92295600	0.05347400	0.61932900	9.04006500	2.35901600	-2.58703700	3.31784700	-3.32106000	1.77825300	7.80379100	2.24551700	1.19775500	4.35397600	-0.90437500	8.83772400	4.48073900	0.18696400	7.21124000
477	4.76000000	8.53849400	-0.35827800	4.80442500	8.88479300	0.85441000	2.78916700	9.91615200	0.36170700	0.77369400	9.11657700	2.66573500	-2.56047900	4.26281100	-3.39304000	1.75993400	7.93433800	2.45329200	1.47737600	4.44157500	-0.81917800	8.30942100	5.66642000	-0.65315900	7.41538400
478	4.77000000	8.43303600	-0.45524600	4.59441100	8.76610700	1.04229900	2.75820100	9.80369200	0.57624000	0.86052200	9.17880600	2.77372300	-2.52937900	4.94780500	-3.87425800	1.74892100	7.66281000	2.75650400	1.70423400	4.70830400	-0.84794400	8.69708800	7.69776600	-1.93783600	7.14894200
479	4.78000000	8.34567700	-0.54003600	4.51903800	8.74703600	1.22736300	2.71459700	9.81966100	0.80900400	0.94983800	9.22930000	2.64955700	-2.53894100	5.29300500	-3.08997700	2.29813100	7.18671600	2.96823000	1.95316600	4.37491900	-0.64500700	8.67065600	9.19235700	-2.27817000	6.45975800
480	4.79000000	8.27748400	-0.58259500	4.43030100	8.78765800	1.34643600	2.67809900	9.85489400	0.96160500	1.09952900	9.20433500	2.38260100	-2.48002500	5.94931100	-1.58356400	2.97834100	6.54586000	3.30735600	1.99339500	4.33916900	-0.83872400	8.80738800	9.84345300	-1.88102500	6.10671700
481	4.80000000	8.37735800	-0.56370000	4.49704300	8.83155700	1.46919600	2.66408700	9.84220500	0.75715000	1.05409600	9.18785700	2.05599700	-2.48250100	7.03539200	-1.22427400	3.16385800	6.19562200	3.62618600	1.92541900	4.57064200	-0.77793900	8.34410300	10.45870000	-1.37161800	6.06748400
482	4.81000000	8.33417900	-0.57593800	4.45450900	8.92472600	1.49197400	2.61615000	9.82157400	0.24628200	1.07609100	9.28989500	1.73257200	-2.43273100	7.94473700	-1.56710700	2.84148100	6.13188800	3.81415800	1.91995100	4.79960100	-0.71651100	8.47967600	10.85637300	-0.76478400	6.34159200
